<?xml version="1.0" encoding="UTF-8" standalone="no"?>
<!-- Created with Inkscape (http://www.inkscape.org/) -->

<svg
   width="686.14233mm"
   height="69.968094mm"
   viewBox="0 0 686.14233 69.968094"
   version="1.1"
   id="svg1"
   inkscape:version="1.4.3 (0d15f75, 2025-12-25)"
   sodipodi:docname="logo.svg"
   xmlns:inkscape="http://www.inkscape.org/namespaces/inkscape"
   xmlns:sodipodi="http://sodipodi.sourceforge.net/DTD/sodipodi-0.dtd"
   xmlns="http://www.w3.org/2000/svg"
   xmlns:svg="http://www.w3.org/2000/svg">
  <sodipodi:namedview
     id="namedview1"
     pagecolor="#ffffff"
     bordercolor="#666666"
     borderopacity="1.0"
     inkscape:showpageshadow="2"
     inkscape:pageopacity="0.0"
     inkscape:pagecheckerboard="0"
     inkscape:deskcolor="#d1d1d1"
     inkscape:document-units="mm"
     inkscape:zoom="0.42613408"
     inkscape:cx="1358.7273"
     inkscape:cy="421.22892"
     inkscape:window-width="1920"
     inkscape:window-height="1057"
     inkscape:window-x="-8"
     inkscape:window-y="-8"
     inkscape:window-maximized="1"
     inkscape:current-layer="layer1" />
  <defs
     id="defs1" />
  <g
     inkscape:label="Layer 1"
     inkscape:groupmode="layer"
     id="layer1"
     transform="translate(121.20087,-113.30829)">
    <g
       id="g4"
       transform="matrix(1.5,0,0,1.5,-110.93516,-74.14617)">
      <path
         style="font-weight:500;font-size:70.5556px;line-height:1.25;font-family:N-Gage;-inkscape-font-specification:'N-Gage Medium';text-align:center;text-anchor:middle;stroke-width:0.264583"
         d="m 101.3343,125.53413 28.22224,40.56947 q 1.12889,1.76389 3.81,3.24556 2.61056,1.48167 6.20889,1.48167 3.52778,0 5.85612,-1.48167 1.19944,-0.77611 2.18722,-1.55223 1.05834,-0.77611 1.905,-1.69333 l 28.22224,-40.56947 h -14.67556 l -23.49502,33.51391 -23.56557,-33.51391 z m 79.93946,45.2967 h 14.11112 v -45.2967 h -14.11112 z m 24.69446,-45.2967 q -3.52778,0 -5.29167,2.04611 -1.76389,1.97556 -1.76389,5.00945 v 20.03779 h 56.44448 v 8.81945 h -56.44448 v 9.3839 h 62.9356 q 3.52778,0 5.29167,-1.76389 1.76389,-1.90501 1.76389,-5.29167 v -20.60224 h -55.88004 v -8.25501 h 70.48505 v -9.38389 z m 77.04668,45.2967 h 14.11112 v -45.2967 H 283.0149 Z m 87.63006,-45.2967 h -31.75002 -31.18558 q -3.52778,0 -5.29167,2.11667 -1.76389,1.97555 -1.76389,4.93889 v 31.18558 q 0,4.09222 2.04611,5.57389 2.11667,1.48167 3.81,1.48167 h 32.38503 32.31446 q 1.76389,0 3.81001,-1.48167 2.04611,-1.41111 2.04611,-5.57389 v -31.18558 q 0,-2.89278 -1.48167,-4.93889 -1.41111,-2.11667 -4.93889,-2.11667 z m -7.05556,9.45445 v 26.45835 h -24.69446 -24.13002 v -26.45835 h 24.13002 z m 32.31443,-8.25501 q -1.83444,-1.12889 -4.445,-1.48166 -1.34056,-0.14111 -2.46945,-0.21167 -1.05833,-0.0706 -1.905,-0.0706 -2.25778,0.56445 -4.445,2.32834 -2.04611,1.83444 -2.04611,4.16278 v 39.37003 h 13.54667 v -32.94947 q 1.12889,1.83444 7.62001,6.77334 6.42056,5.00944 13.54667,10.58334 3.52778,2.82222 6.63223,5.29167 3.175,2.39889 5.99723,4.445 2.82222,2.04611 4.16278,3.10445 1.41111,0.98778 1.41111,0.98778 2.96334,1.83444 6.49112,2.32833 3.38666,0.635 7.05556,-0.56444 1.27,-0.70556 2.32833,-2.04612 1.19945,-1.55222 1.19945,-3.24555 V 125.53409 H 436.47331 V 159.683 Z"
         id="text1"
         aria-label="VISION" />
      <text
         xml:space="preserve"
         style="font-style:normal;font-variant:normal;font-weight:normal;font-stretch:normal;font-size:70.5556px;line-height:1.25;font-family:N-Gage;-inkscape-font-specification:N-Gage;text-align:center;text-anchor:middle;stroke-width:0.264583"
         x="54.674316"
         y="182.24771"
         id="text2"><tspan
           sodipodi:role="line"
           id="tspan2"
           style="font-style:normal;font-variant:normal;font-weight:normal;font-stretch:normal;font-family:N-Gage;-inkscape-font-specification:N-Gage;stroke-width:0.264583"
           x="54.674316"
           y="182.24771" /></text>
      <path
         style="font-size:70.5556px;line-height:1.25;font-family:N-Gage;-inkscape-font-specification:N-Gage;text-align:center;text-anchor:middle;fill:#ef4136;fill-opacity:1;stroke-width:0.305287"
         d="m 79.533279,148.54696 q 0,1.69087 0.634982,3.19387 0.634984,1.50299 1.763841,2.63024 1.128859,1.03331 2.610485,1.69087 1.55218,0.65756 3.245467,0.65756 1.693287,0 3.174913,-0.65756 1.481626,-0.65756 2.610485,-1.69087 1.128866,-1.12725 1.763846,-2.63024 0.63498,-1.503 0.63498,-3.19387 0,-1.69086 -0.63498,-3.19386 -0.63498,-1.50299 -1.763846,-2.63024 -1.128859,-1.12725 -2.610485,-1.7848 -1.481626,-0.65756 -3.174913,-0.65756 -1.693287,0 -3.245467,0.65756 -1.481626,0.65755 -2.610485,1.7848 -1.128857,1.12725 -1.763841,2.63024 -0.634982,1.503 -0.634982,3.19386 z"
         id="text3"
         aria-label="-" />
      <path
         style="font-size:70.5556px;line-height:1.25;font-family:N-Gage;-inkscape-font-specification:N-Gage;text-align:center;text-anchor:middle;fill:#ef4136;stroke-width:0.264583"
         d="m 8.4667564,126.73357 q -1.8344457,-1.12889 -4.445003,-1.48166 -1.3405565,-0.14111 -2.4694461,-0.21167 -1.05833407,-0.0706 -1.90500131,-0.0706 -2.25777929,0.56445 -4.44500299,2.32834 -2.0461125,1.83444 -2.0461125,4.16278 v 39.37003 H 6.7028663 v -32.94947 q 1.1288896,1.83444 7.6200047,6.77334 6.42056,5.00944 13.546676,10.58334 3.52778,2.82222 6.632227,5.29167 3.175002,2.39889 5.997226,4.445 2.822224,2.04611 4.162781,3.10445 1.411112,0.98778 1.411112,0.98778 2.963335,1.83444 6.491115,2.32833 3.386669,0.635 7.055561,-0.56444 1.27,-0.70556 2.328334,-2.04612 1.199446,-1.55222 1.199446,-3.24555 V 125.53413 H 49.036228 v 34.14891 z"
         id="text4"
         aria-label="n" />
    </g>
  </g>
</svg>
