<?xml version="1.0" encoding="UTF-8" standalone="no"?>
<!-- Created with Inkscape (http://www.inkscape.org/) -->

<svg
   width="540"
   height="270"
   viewBox="0 0 285.75 142.875"
   version="1.1"
   id="svg1"
   inkscape:version="1.4 (86a8ad7, 2024-10-11)"
   sodipodi:docname="logo.svg"
   xmlns:inkscape="http://www.inkscape.org/namespaces/inkscape"
   xmlns:sodipodi="http://sodipodi.sourceforge.net/DTD/sodipodi-0.dtd"
   xmlns="http://www.w3.org/2000/svg"
   xmlns:svg="http://www.w3.org/2000/svg">
  <sodipodi:namedview
     id="namedview1"
     pagecolor="#ffffff"
     bordercolor="#666666"
     borderopacity="1.0"
     inkscape:showpageshadow="2"
     inkscape:pageopacity="0.0"
     inkscape:pagecheckerboard="0"
     inkscape:deskcolor="#d1d1d1"
     inkscape:document-units="mm"
     inkscape:zoom="0.6026446"
     inkscape:cx="288.72739"
     inkscape:cy="-65.544436"
     inkscape:window-width="1009"
     inkscape:window-height="924"
     inkscape:window-x="3057"
     inkscape:window-y="381"
     inkscape:window-maximized="0"
     inkscape:current-layer="layer1"
     showgrid="false" />
  <defs
     id="defs1" />
  <g
     inkscape:label="Layer 1"
     inkscape:groupmode="layer"
     id="layer1"
     transform="translate(121.20087,-113.30829)">
    <g
       id="g4"
       transform="matrix(1.5,0,0,1.5,-106.50253,-37.692719)">
      <path
         style="font-weight:500;font-size:70.5556px;line-height:1.25;font-family:N-Gage;-inkscape-font-specification:'N-Gage Medium';text-align:center;text-anchor:middle;stroke-width:0.264583"
         d="m 101.33431,125.53413 28.22224,40.56947 c 0.75259,1.17593 2.02259,2.25778 3.81,3.24556 1.74037,0.98778 3.81,1.48167 6.20889,1.48167 2.35185,0 4.30389,-0.49389 5.85612,-1.48167 0.79963,-0.51741 1.5287,-1.03482 2.18722,-1.55223 0.70556,-0.51741 1.34056,-1.08185 1.905,-1.69333 l 28.22224,-40.56947 h -14.67556 l -23.49502,33.51391 -23.56557,-33.51391 z"
         id="text1"
         aria-label="VISION"
         sodipodi:nodetypes="cccscccccccc" />
      <text
         xml:space="preserve"
         style="font-style:normal;font-variant:normal;font-weight:normal;font-stretch:normal;font-size:70.5556px;line-height:1.25;font-family:N-Gage;-inkscape-font-specification:N-Gage;text-align:center;text-anchor:middle;stroke-width:0.264583"
         x="54.674316"
         y="182.24771"
         id="text2"><tspan
           sodipodi:role="line"
           id="tspan2"
           style="font-style:normal;font-variant:normal;font-weight:normal;font-stretch:normal;font-family:N-Gage;-inkscape-font-specification:N-Gage;stroke-width:0.264583"
           x="54.674316"
           y="182.24771" /></text>
      <path
         style="font-size:70.5556px;line-height:1.25;font-family:N-Gage;-inkscape-font-specification:N-Gage;text-align:center;text-anchor:middle;fill:#ef4136;fill-opacity:1;stroke-width:0.305287"
         d="m 77.231606,148.54696 q 0,1.69087 0.634982,3.19387 0.634984,1.50299 1.763841,2.63024 1.128859,1.03331 2.610485,1.69087 1.55218,0.65756 3.245467,0.65756 1.693287,0 3.174913,-0.65756 1.481626,-0.65756 2.610485,-1.69087 1.128866,-1.12725 1.763846,-2.63024 0.63498,-1.503 0.63498,-3.19387 0,-1.69086 -0.63498,-3.19386 -0.63498,-1.50299 -1.763846,-2.63024 -1.128859,-1.12725 -2.610485,-1.7848 -1.481626,-0.65756 -3.174913,-0.65756 -1.693287,0 -3.245467,0.65756 -1.481626,0.65755 -2.610485,1.7848 -1.128857,1.12725 -1.763841,2.63024 -0.634982,1.503 -0.634982,3.19386 z"
         id="text3"
         aria-label="-" />
      <path
         style="font-size:70.5556px;line-height:1.25;font-family:N-Gage;-inkscape-font-specification:N-Gage;text-align:center;text-anchor:middle;fill:#ef4136;stroke-width:0.264583"
         d="m 8.4667564,126.73357 q -1.8344457,-1.12889 -4.445003,-1.48166 -1.3405565,-0.14111 -2.4694461,-0.21167 -1.05833407,-0.0706 -1.90500131,-0.0706 -2.25777929,0.56445 -4.44500299,2.32834 -2.0461125,1.83444 -2.0461125,4.16278 v 39.37003 H 6.7028663 v -32.94947 q 1.1288896,1.83444 7.6200047,6.77334 6.42056,5.00944 13.546676,10.58334 3.52778,2.82222 6.632227,5.29167 3.175002,2.39889 5.997226,4.445 2.822224,2.04611 4.162781,3.10445 1.411112,0.98778 1.411112,0.98778 2.963335,1.83444 6.491115,2.32833 3.386669,0.635 7.055561,-0.56444 1.27,-0.70556 2.328334,-2.04612 1.199446,-1.55222 1.199446,-3.24555 V 125.53413 H 49.036228 v 34.14891 z"
         id="text4"
         aria-label="n" />
    </g>
  </g>
</svg>
